<svg xmlns="http://www.w3.org/2000/svg" xmlns:xlink="http://www.w3.org/1999/xlink" version="1.1" id="Calque_1" x="0px" y="0px" width="100px" height="100px" viewBox="0 0 100 100" enable-background="new 0 0 100 100" xml:space="preserve">
<g>
	<path d="M50.849,85.432c-1.874,0-3.4,1.527-3.4,3.402s1.526,3.398,3.4,3.398c1.875,0,3.401-1.523,3.401-3.398   S52.725,85.432,50.849,85.432z"/>
	<g>
		<path fill-rule="evenodd" clip-rule="evenodd" d="M39.605,25.628c0,4.59,0,9.183,0,13.773c-4.591,0-9.181,0-13.773,0    c0-4.59,0-9.183,0-13.773C30.424,25.628,35.015,25.628,39.605,25.628z M27.77,27.779c0,3.229,0,6.458,0,9.685c3.299,0,6.6,0,9.9,0    c0-3.228,0-6.456,0-9.685C34.37,27.779,31.069,27.779,27.77,27.779z"/>
		<path fill-rule="evenodd" clip-rule="evenodd" d="M41.543,25.628c0.646,0,1.292,0,1.937,0c0,0.646,0,1.291,0,1.937    c1.222,0,2.437,0,3.658,0c0.489-0.229,0.082-1.353,0.216-1.937c0.645,0,1.292,0,1.938,0c0,0.717,0,1.435,0,2.151    c-0.646,0-1.293,0-1.938,0c0,2.584,0,5.166,0,7.747c-0.646,0-1.293,0-1.937,0c0-1.218,0-2.438,0-3.657    c-0.865-0.499-2.651-0.075-3.874-0.216C41.543,29.646,41.543,27.637,41.543,25.628z"/>
		<path fill-rule="evenodd" clip-rule="evenodd" d="M74.902,25.628c0,4.59,0,9.183,0,13.773c-4.594,0-9.184,0-13.777,0    c0-4.59,0-9.183,0-13.773C65.719,25.628,70.309,25.628,74.902,25.628z M63.064,27.779c0,3.229,0,6.458,0,9.685    c3.227,0,6.455,0,9.682,0c0-3.228,0-6.456,0-9.685C69.52,27.779,66.291,27.779,63.064,27.779z"/>
		<path fill-rule="evenodd" clip-rule="evenodd" d="M29.706,29.718c2.009,0,4.019,0,6.029,0c0,1.936,0,3.874,0,5.809    c-2.01,0-4.02,0-6.029,0C29.706,33.591,29.706,31.654,29.706,29.718z"/>
		<path fill-rule="evenodd" clip-rule="evenodd" d="M65,29.718c1.938,0,3.873,0,5.812,0c0,1.936,0,3.874,0,5.809    c-1.939,0-3.875,0-5.812,0C65,33.591,65,31.654,65,29.718z"/>
		<path fill-rule="evenodd" clip-rule="evenodd" d="M41.543,33.591c0.646,0,1.292,0,1.937,0c0,0.646,0,1.291,0,1.935    c-0.645,0-1.29,0-1.937,0C41.543,34.882,41.543,34.237,41.543,33.591z"/>
		<path fill-rule="evenodd" clip-rule="evenodd" d="M41.543,37.464c0.646,0,1.292,0,1.937,0c0,0.645,0,1.292,0,1.937    c-0.645,0-1.29,0-1.937,0C41.543,38.756,41.543,38.109,41.543,37.464z"/>
		<path fill-rule="evenodd" clip-rule="evenodd" d="M45.417,37.464c0.644,0,1.291,0,1.937,0c0,1.292,0,2.583,0,3.875    c-0.646-0.002-1.293,0-1.937,0C45.417,40.047,45.417,38.756,45.417,37.464z"/>
		<path fill-rule="evenodd" clip-rule="evenodd" d="M45.417,43.275c0.644,0,1.291,0,1.937,0c0,0.646,0,1.292,0,1.937    c-0.646,0-1.293,0-1.937,0C45.417,44.566,45.417,43.921,45.417,43.275z"/>
		<path fill-rule="evenodd" clip-rule="evenodd" d="M39.605,60.924c0,4.59,0,9.18,0,13.771c-4.591,0-9.181,0-13.773,0    c0-4.592,0-9.182,0-13.771C30.424,60.924,35.015,60.924,39.605,60.924z M27.77,63.074c0.137,3.164-0.278,6.879,0.213,9.686    c3.157,0,6.313,0,9.472,0c0.493-2.877,0.075-6.666,0.215-9.9C34.434,62.996,30.648,62.582,27.77,63.074z"/>
		<path fill-rule="evenodd" clip-rule="evenodd" d="M61.125,60.924c0.646,0,1.291,0,1.939,0c0,0.645,0,1.291,0,1.936    c-0.648,0-1.293,0-1.939,0C61.125,62.215,61.125,61.568,61.125,60.924z"/>
		<path fill-rule="evenodd" clip-rule="evenodd" d="M35.734,64.795c0,1.939,0,3.875,0,5.812c-1.53,0.48-3.931,0.09-5.811,0.215    c-0.354-1.539-0.354-4.488,0-6.027C31.859,64.795,33.794,64.795,35.734,64.795z"/>
		<path fill-rule="evenodd" clip-rule="evenodd" d="M55.314,39.401c-0.645,0-1.289,0-1.934,0c0,0.575,0,1.148,0,1.722    c0.158,0.485,1.205,0.083,1.723,0.216C55.588,41.109,55.182,39.984,55.314,39.401c0.645,0,1.295,0,1.938,0    c0-1.864,0-3.729,0-5.596c-0.16-0.484-1.207-0.083-1.721-0.213c-0.488,0.228-0.082,1.352-0.217,1.935c-0.645,0-1.289,0-1.934,0    c0-0.645,0-1.29,0-1.935c-0.734-0.06-1.748,0.166-2.156-0.216c0-2.511,0-5.021,0-7.532c0.408-0.383,1.422-0.157,2.156-0.215    c0,2.655,0,5.309,0,7.963c0.572,0,1.145,0,1.723,0c0.455-0.907,0.104-2.622,0.211-3.874c0.578,0,1.148,0,1.723,0    c0.383-0.408,0.158-1.421,0.215-2.153c0.646,0,1.293,0,1.939,0c0,4.521,0,9.039,0,13.558c0.229,0.489,1.35,0.082,1.934,0.216    c0,0.644,0,1.291,0,1.936c-1.217,0-2.438,0-3.654,0c-0.49,0.229-0.086,1.353-0.219,1.937c2.586,0,5.164,0,7.748,0    c0-1.291,0-2.582,0-3.873c0.648-0.002,1.291,0,1.938,0c0,0.644,0,1.291,0,1.936c0.576,0,1.15,0,1.721,0    c0.49-0.229,0.084-1.353,0.215-1.936c2.01,0,4.018,0,6.029,0c0,0.644,0,1.291,0,1.936c-1.293,0-2.584,0-3.877,0    c-0.359,0.358-0.168,1.263-0.213,1.937c-1.221,0-2.439,0-3.662,0c-0.357,0.357-0.17,1.264-0.213,1.938c-0.574,0-1.146,0-1.725,0    c-0.455,0.904-0.104,2.622-0.213,3.872c0.314,0.334,1.104,0.191,1.725,0.217c0.498-0.937,0.07-2.795,0.213-4.089    c1.293,0,2.582,0,3.875,0c0,0.646,0,1.29,0,1.936c0.646,0,1.289,0,1.934,0c0-1.22,0-2.439,0-3.658    c0.408-0.382,1.422-0.156,2.156-0.216c0,1.292,0,2.583,0,3.874c-0.312,0.334-1.102,0.189-1.723,0.215    c-0.551,0.241,0.084,1.666-0.434,1.938c-0.645,0-1.287,0-1.934,0c0-0.647,0-1.292,0-1.938c-0.645,0-1.293,0-1.939,0    c0,0.574,0,1.148,0,1.721c0.359,0.361,1.264,0.172,1.939,0.217c0,0.572,0,1.146,0,1.721c0.973,0.461,2.766,0.102,4.09,0.215    c0,0.646,0,1.293,0,1.939c-1.365,0-2.725,0-4.09,0c0-0.646,0-1.293,0-1.939c-0.645,0-1.293,0-1.939,0c0,0.574,0,1.15,0,1.723    c0.359,0.359,1.264,0.17,1.939,0.217c0,0.572,0,1.146,0,1.721c0.973,0.461,2.766,0.102,4.09,0.215c0,2.582,0,5.166,0,7.746    c-1.365,0-2.725,0-4.09,0c0-0.645,0-1.293,0-1.936c0.646,0,1.289,0,1.934,0c0-0.645,0-1.291,0-1.936c-1.221,0-2.438,0-3.654,0    c-0.502,1.434-0.076,3.799-0.219,5.596c1.582,0.498,4.088,0.072,6.029,0.215c0,2.652,0,5.309,0,7.961c-0.645,0-1.293,0-1.938,0    c-0.361-0.357-0.172-1.264-0.219-1.936c-1.221,0-2.438,0-3.654,0c-0.494,0.229-0.086,1.35-0.219,1.936c-0.643,0-1.293,0-1.936,0    c0-0.572,0-1.148,0-1.721c-0.229-0.488-1.35-0.082-1.938-0.215c0-0.645,0-1.291,0-1.938c-0.643,0-1.289,0-1.936,0    c0,1.293,0,2.582,0,3.873c-0.648,0-1.293,0-1.939,0c0-1.363,0-2.727,0-4.088c0.646,0,1.291,0,1.939,0c0-0.646,0-1.293,0-1.938    c-1.293,0-2.584,0-3.873,0c0-0.572,0-1.146,0-1.723c-1.529-0.479-3.932-0.086-5.811-0.213c0-0.576,0-1.15,0-1.723    c-0.312-0.332-1.102-0.191-1.723-0.217c-0.5,0.795-0.076,2.51-0.217,3.66c1.508,0.5,3.945,0.07,5.811,0.215    c0,1.291,0,2.584,0,3.873c0.229,0.488,1.354,0.082,1.939,0.217c0,0.645,0,1.289,0,1.936c-0.646,0-1.293,0-1.939,0    c0-0.646,0-1.291,0-1.936c-0.57,0-1.148,0-1.721,0c-0.488,0.229-0.082,1.35-0.217,1.936c-0.645,0-1.289,0-1.934,0    c0-0.646,0-1.291,0-1.936c0.572,0,1.145,0,1.723,0c0.332-0.312,0.189-1.102,0.211-1.725c-0.861-0.496-2.65-0.074-3.873-0.213    c0,1.221,0,2.438,0,3.658c-1.6,0.482-4.074,0.086-6.024,0.215c0-0.646,0-1.291,0-1.936c-0.572,0-1.148,0-1.724,0    c-0.486,0.229-0.079,1.35-0.214,1.936c-0.645,0-1.29,0-1.937,0c0-0.646,0-1.291,0-1.936c0.646,0,1.292,0,1.937,0    c0-0.717,0-1.436,0-2.152c0.646,0,1.291,0,1.938,0c0,0.646,0,1.289,0,1.936c0.311,0.336,1.1,0.189,1.721,0.217    c0.5-1.58,0.074-4.088,0.216-6.025c0.645,0,1.292,0,1.938,0c0-1.293,0-2.584,0-3.875c2.009,0,4.015,0,6.023,0    c0,0.643,0,1.291,0,1.936c0.645,0,1.295,0,1.938,0c0-1.863,0-3.729,0-5.594c-0.229-0.49-1.352-0.082-1.938-0.215    c0-0.646,0-1.293,0-1.938c0.645,0,1.295,0,1.938,0c0-0.645,0-1.293,0-1.936c-0.57,0-1.148,0-1.721,0    c-0.488,0.229-0.082,1.354-0.217,1.936c-0.572,0-1.145,0-1.723,0c-0.484,0.229-0.078,1.352-0.211,1.938c-0.645,0-1.291,0-1.939,0    c0,0.645,0,1.289,0,1.938c-0.644,0-1.292,0-1.937,0c-0.486,0.227-0.079,1.352-0.213,1.936c-0.646,0-1.293,0-1.938,0    c0,1.291,0,2.582,0,3.875c-0.573,0-1.148,0-1.725,0c-0.357,0.357-0.169,1.264-0.212,1.936c-1.292,0-2.582,0-3.874,0    c0-3.875,0-7.746,0-11.621c0.646,0,1.292,0,1.937,0c0,1.221,0,2.438,0,3.658c0.795,0.498,2.507,0.076,3.658,0.217    c0.489-0.23,0.082-1.354,0.216-1.938c0.645,0,1.292,0,1.938,0c0-0.574,0-1.15,0-1.723c-0.229-0.486-1.354-0.082-1.938-0.215    c0-0.645,0-1.293,0-1.936c-0.573,0-1.148,0-1.725,0c-0.486,0.229-0.08,1.354-0.212,1.936c-0.646,0-1.292,0-1.938,0    c0-1.293,0-2.582,0-3.875c2.654,0,5.31,0,7.961,0c0,0.574,0,1.15,0,1.723c-0.406,0.383-1.42,0.156-2.15,0.217    c0,0.572,0,1.146,0,1.721c0.902,0.457,2.619,0.105,3.869,0.215c0.496-2.807,0.08-6.522,0.221-9.684    c-0.408-0.382-1.422-0.158-2.156-0.216c0-0.646,0-1.292,0-1.938c-0.643,0-1.289,0-1.933,0c0-1.291,0-2.582,0-3.873    c0.645-0.002,1.29,0,1.933,0c0-0.575,0-1.149,0-1.722c-0.227-0.489-1.347-0.082-1.933-0.216c0-1.292,0-2.581,0-3.875    c0.715,0,1.435,0,2.15,0c0,1.22,0,2.44,0,3.661c0.162,0.484,1.209,0.084,1.719,0.214c0.492-0.229,0.086-1.352,0.221-1.937    c0.645,0,1.289,0,1.934,0C55.314,38.109,55.314,38.756,55.314,39.401z M55.314,43.275c0.645,0,1.295,0,1.938,0    c0-0.646,0-1.292,0-1.936c-0.643,0-1.293-0.002-1.938,0C55.314,41.982,55.314,42.629,55.314,43.275z M53.381,47.149    c0.645,0,1.289,0,1.934,0c0,0.646,0,1.29,0,1.936c0.676,0.045,1.584-0.145,1.938,0.215c0,0.646,0,1.291,0,1.938    c-0.643,0-1.293,0-1.938,0c0,0.645,0,1.289,0,1.936c0.578,0,1.148,0,1.723,0c0.518-0.271-0.119-1.695,0.434-1.936    c1.217,0,2.438,0,3.654,0c0,0.645,0,1.289,0,1.936c-0.645,0-1.287,0-1.934,0c0,0.646,0,1.293,0,1.939c0.646,0,1.289,0,1.934,0    c0.137-0.586-0.271-1.709,0.219-1.939c0.57,0,1.146,0,1.721,0c0,0.646,0,1.293,0,1.939c-0.648,0-1.293,0-1.939,0    c0,0.643,0,1.291,0,1.936c0.646,0,1.291,0,1.939,0c0.133-0.582-0.275-1.707,0.217-1.936c1.219,0,2.438,0,3.656,0    c0-0.646,0-1.293,0-1.939c-0.646,0-1.289,0-1.938,0c0-0.646,0-1.291,0-1.936c-1.289,0-2.584,0-3.875,0c0-0.647,0-1.292,0-1.938    c-0.584-0.133-1.705,0.273-1.934-0.215c-0.045-0.673,0.145-1.58-0.217-1.936c-1.217,0-2.438,0-3.66,0c0-0.574,0-1.149,0-1.722    c-0.27-0.518-1.697,0.119-1.934-0.432c0-1.146,0-2.295,0-3.442c-0.357-0.36-1.266-0.171-1.939-0.214c0,1.291,0,2.582,0,3.873    c0.648,0,1.295,0,1.939,0C53.381,45.857,53.381,46.503,53.381,47.149z M66.938,58.986c0.643,0,1.293,0,1.936,0    c0-0.646,0-1.293,0-1.938c-0.643,0-1.293,0-1.936,0C66.938,57.693,66.938,58.34,66.938,58.986z M59.191,64.795    c1.934,0,3.873,0,5.809,0c0-1.936,0-3.871,0-5.809c-1.936,0-3.875,0-5.809,0C59.191,60.924,59.191,62.859,59.191,64.795z     M43.48,66.734c0.646,0,1.291,0,1.938,0c0-1.293,0-2.584,0-3.875c-0.646,0-1.292,0-1.938,0C43.48,64.15,43.48,65.441,43.48,66.734    z M65,68.67c0.648,0,1.291,0,1.938,0c0-0.645,0-1.291,0-1.936C65.309,66.396,64.664,67.041,65,68.67z M66.938,70.607    c1.293,0,2.582,0,3.875,0c0-0.646,0-1.293,0-1.938C69.021,68.814,66.131,67.861,66.938,70.607z"/>
		<path fill-rule="evenodd" clip-rule="evenodd" d="M27.77,43.275c-0.646,0-1.293,0-1.938,0c0-0.646,0-1.292,0-1.936    c0.645-0.002,1.292,0,1.938,0C27.77,41.982,27.77,42.629,27.77,43.275c0.645,0,1.29,0,1.936,0    c0.362,0.358,0.174,1.263,0.218,1.937c0.643,0,1.291,0,1.936,0c0,0.646,0,1.292,0,1.938c-0.72,0-1.435,0-2.154,0    c0-0.646,0-1.292,0-1.938c-0.573,0-1.147,0-1.723,0c-0.36,0.357-0.168,1.264-0.213,1.938c-0.646,0-1.293,0-1.938,0    c0-0.646,0-1.292,0-1.938c0.645,0,1.292,0,1.938,0C27.77,44.566,27.77,43.921,27.77,43.275z"/>
		<path fill-rule="evenodd" clip-rule="evenodd" d="M41.543,51.238c0-1.292,0-2.582,0-3.873c-1.508-0.501-3.943-0.074-5.809-0.216    c0-0.574,0-1.149,0-1.722c-0.356-0.36-1.266-0.172-1.94-0.216c0-0.574,0-1.148,0-1.722c-0.354-0.359-1.26-0.171-1.935-0.215    c0-0.646,0-1.292,0-1.936c3.875,0,7.746,0,11.621,0c0,2.511,0,5.021,0,7.532c0.159,0.485,1.206,0.084,1.723,0.214    c0.486-0.228,0.08-1.353,0.215-1.936c0.644,0,1.291,0,1.937,0c0,0.646,0,1.29,0,1.936c1.292,0,2.582,0,3.871,0    c0.332,0.392,0.332,1.761,0,2.153c-1.289,0-2.579,0-3.871,0c0-0.647,0-1.292,0-1.938c-0.573,0-1.148,0-1.725,0    c-0.486,0.229-0.08,1.354-0.212,1.938c-1.22,0-2.44,0-3.659,0c-0.491,0.229-0.084,1.35-0.215,1.936c-0.648,0-1.293,0-1.938,0    c0,0.646,0,1.293,0,1.939c-1.219,0-2.437,0-3.657,0c-0.487,0.229-0.082,1.354-0.214,1.936c1.291,0,2.58,0,3.871,0    c0,0.645,0,1.291,0,1.938c-1.291,0-2.58,0-3.871,0c0-0.646,0-1.293,0-1.938c-0.647,0-1.296,0-1.94,0c0-1.221,0-2.439,0-3.658    c-0.229-0.49-1.353-0.084-1.935-0.217c0,1.293,0,2.582,0,3.875c-0.72,0-1.435,0-2.154,0c0-0.645,0-1.293,0-1.936    c-0.646,0-1.291,0-1.936,0c0,1.291,0,2.58,0,3.873c-0.646,0-1.293,0-1.938,0c0-2.582,0-5.166,0-7.748c0.645,0,1.292,0,1.938,0    c0,0.572,0,1.146,0,1.721c0.312,0.332,1.102,0.189,1.722,0.215c0.484-0.16,0.084-1.207,0.214-1.721    c-0.228-0.487-1.353-0.082-1.936-0.215c0.06-0.732-0.169-1.745,0.213-2.153c0.575,0,1.149,0,1.723,0    c0.382,0.408,0.157,1.421,0.218,2.153c1.216,0,2.436,0,3.658,0c0.379-0.408,0.156-1.421,0.213-2.153c0.576,0,1.148,0,1.722,0    c0.382,0.408,0.159,1.421,0.219,2.153c0.57,0,1.146,0,1.721,0c0.382-0.408,0.154-1.421,0.215-2.153c0.645,0,1.289,0,1.936,0    c0,0.717,0,1.435,0,2.153c-0.646,0-1.291,0-1.936,0c0,0.645,0,1.289,0,1.936c0.572,0,1.146,0,1.722,0    c0.486-0.229,0.082-1.352,0.214-1.936C40.25,51.238,40.896,51.238,41.543,51.238z M37.67,45.211c1.289,0,2.58,0,3.874,0    c0-0.645,0-1.291,0-1.937c-1.293,0-2.584,0-3.874,0C37.67,43.921,37.67,44.566,37.67,45.211z"/>
	</g>
	<g>
		<path d="M69.203,75.805v6.752c0,0.271-0.217,0.494-0.49,0.494H32.432c-0.272,0-0.492-0.221-0.492-0.494v-6.752h-2.706v13.971    c0,2.988,2.42,5.41,5.412,5.41h31.729c2.99,0,5.412-2.422,5.412-5.41V75.805H69.203z M50.836,93.137    c-2.35,0-4.263-1.914-4.263-4.264c0-2.354,1.913-4.266,4.263-4.266c2.353,0,4.265,1.912,4.265,4.266    C55.102,91.223,53.189,93.137,50.836,93.137z"/>
		<path d="M28.948,23.047v1.491h2.992v-6.304c0-0.272,0.22-0.491,0.49-0.491h36.283c0.271,0,0.49,0.219,0.49,0.491v6.304h2.584    V10.856c0-2.989-2.422-5.411-5.412-5.412h-1.236c-0.074-0.168-0.244-0.288-0.443-0.288H59.98c-0.197,0-0.369,0.12-0.443,0.288    H34.646c-2.991,0-5.412,2.421-5.412,5.41v6.993c-0.17,0.079-0.286,0.245-0.286,0.443v1.788c0,0.199,0.116,0.366,0.286,0.443v2.082    C29.064,22.682,28.948,22.85,28.948,23.047z M50.346,8.929c0.454,0,0.82,0.366,0.82,0.819c0,0.453-0.366,0.82-0.82,0.82    c-0.45,0-0.82-0.367-0.82-0.82C49.526,9.295,49.894,8.929,50.346,8.929z M47.477,12.782h6.148c0.273,0,0.492,0.221,0.492,0.492    c0,0.273-0.219,0.493-0.492,0.493h-6.148c-0.271,0-0.493-0.219-0.493-0.493C46.984,13.003,47.206,12.782,47.477,12.782z"/>
	</g>
</g>
</svg>